<mxfile host="app.diagrams.net" modified="2022-02-04T12:29:38.506Z" agent="5.0 (Windows NT 10.0; Win64; x64) AppleWebKit/537.36 (KHTML, like Gecko) Chrome/97.0.4692.99 Safari/537.36" etag="PJmK9cpzgaJXBd7357Hl" version="16.5.3" type="github">
  <diagram name="Page-1" id="efa7a0a1-bf9b-a30e-e6df-94a7791c09e9">
    <mxGraphModel dx="3195" dy="1866" grid="1" gridSize="10" guides="1" tooltips="1" connect="1" arrows="1" fold="1" page="1" pageScale="1" pageWidth="826" pageHeight="1169" background="none" math="0" shadow="0">
      <root>
        <mxCell id="0" />
        <mxCell id="1" parent="0" />
        <mxCell id="hR7vcm5vldyTw9obsO4O-135" value="coordina&lt;br&gt;n...n" style="rhombus;whiteSpace=wrap;html=1;" parent="1" vertex="1">
          <mxGeometry x="-631" y="-140" width="80" height="80" as="geometry" />
        </mxCell>
        <mxCell id="hR7vcm5vldyTw9obsO4O-136" value="solicita&lt;br&gt;1..n" style="rhombus;whiteSpace=wrap;html=1;" parent="1" vertex="1">
          <mxGeometry x="-331.67" y="-355" width="80" height="80" as="geometry" />
        </mxCell>
        <mxCell id="hR7vcm5vldyTw9obsO4O-137" value="" style="endArrow=none;html=1;rounded=0;entryX=0.5;entryY=1;entryDx=0;entryDy=0;" parent="1" source="hR7vcm5vldyTw9obsO4O-116" target="hR7vcm5vldyTw9obsO4O-135" edge="1">
          <mxGeometry width="50" height="50" relative="1" as="geometry">
            <mxPoint x="-510" y="-220" as="sourcePoint" />
            <mxPoint x="-460" y="-270" as="targetPoint" />
          </mxGeometry>
        </mxCell>
        <mxCell id="hR7vcm5vldyTw9obsO4O-142" value="1...n" style="edgeLabel;html=1;align=center;verticalAlign=middle;resizable=0;points=[];" parent="hR7vcm5vldyTw9obsO4O-137" vertex="1" connectable="0">
          <mxGeometry x="0.2174" y="1" relative="1" as="geometry">
            <mxPoint as="offset" />
          </mxGeometry>
        </mxCell>
        <mxCell id="hR7vcm5vldyTw9obsO4O-139" value="0...n" style="endArrow=none;html=1;rounded=0;entryX=0.5;entryY=0;entryDx=0;entryDy=0;exitX=0.5;exitY=1;exitDx=0;exitDy=0;" parent="1" source="hR7vcm5vldyTw9obsO4O-115" target="hR7vcm5vldyTw9obsO4O-135" edge="1">
          <mxGeometry width="50" height="50" relative="1" as="geometry">
            <mxPoint x="-510" y="-220" as="sourcePoint" />
            <mxPoint x="-460" y="-270" as="targetPoint" />
            <Array as="points" />
          </mxGeometry>
        </mxCell>
        <mxCell id="hR7vcm5vldyTw9obsO4O-140" value="0..n" style="endArrow=none;html=1;rounded=0;entryX=1;entryY=0.5;entryDx=0;entryDy=0;exitX=0.5;exitY=1;exitDx=0;exitDy=0;" parent="1" source="hR7vcm5vldyTw9obsO4O-136" target="hR7vcm5vldyTw9obsO4O-115" edge="1">
          <mxGeometry width="50" height="50" relative="1" as="geometry">
            <mxPoint x="-510" y="-220" as="sourcePoint" />
            <mxPoint x="-460" y="-270" as="targetPoint" />
          </mxGeometry>
        </mxCell>
        <mxCell id="hR7vcm5vldyTw9obsO4O-141" value="1..n" style="endArrow=none;html=1;rounded=0;entryX=0.5;entryY=0;entryDx=0;entryDy=0;exitX=0.5;exitY=1;exitDx=0;exitDy=0;" parent="1" source="hR7vcm5vldyTw9obsO4O-117" target="hR7vcm5vldyTw9obsO4O-136" edge="1">
          <mxGeometry width="50" height="50" relative="1" as="geometry">
            <mxPoint x="-150" y="-214.6" as="sourcePoint" />
            <mxPoint x="-100" y="-264.6" as="targetPoint" />
          </mxGeometry>
        </mxCell>
        <mxCell id="hR7vcm5vldyTw9obsO4O-117" value="Cliente" style="rounded=1;whiteSpace=wrap;html=1;" parent="1" vertex="1">
          <mxGeometry x="-331.6666666666667" y="-555.215" width="80" height="41.25" as="geometry" />
        </mxCell>
        <mxCell id="hR7vcm5vldyTw9obsO4O-121" value="&lt;u&gt;rut&lt;/u&gt;" style="ellipse;whiteSpace=wrap;html=1;" parent="1" vertex="1">
          <mxGeometry x="-349.99666666666667" y="-720.54" width="80" height="55" as="geometry" />
        </mxCell>
        <mxCell id="hR7vcm5vldyTw9obsO4O-122" value="nombre" style="ellipse;whiteSpace=wrap;html=1;" parent="1" vertex="1">
          <mxGeometry x="-165.00333333333333" y="-584.995" width="80" height="55" as="geometry" />
        </mxCell>
        <mxCell id="hR7vcm5vldyTw9obsO4O-123" value="apellido1" style="ellipse;whiteSpace=wrap;html=1;" parent="1" vertex="1">
          <mxGeometry x="-430" y="-693.975" width="80" height="55" as="geometry" />
        </mxCell>
        <mxCell id="hR7vcm5vldyTw9obsO4O-124" value="telÃ©fono" style="ellipse;whiteSpace=wrap;html=1;" parent="1" vertex="1">
          <mxGeometry x="-195.56" y="-653.98" width="80" height="55" as="geometry" />
        </mxCell>
        <mxCell id="hR7vcm5vldyTw9obsO4O-125" value="email" style="ellipse;whiteSpace=wrap;html=1;" parent="1" vertex="1">
          <mxGeometry x="-251.67" y="-708.98" width="86.66666666666666" height="55" as="geometry" />
        </mxCell>
        <mxCell id="hR7vcm5vldyTw9obsO4O-134" value="" style="endArrow=none;html=1;rounded=0;" parent="1" source="hR7vcm5vldyTw9obsO4O-117" target="hR7vcm5vldyTw9obsO4O-121" edge="1">
          <mxGeometry width="50" height="50" relative="1" as="geometry">
            <mxPoint x="-340" y="-705.63" as="sourcePoint" />
            <mxPoint x="-290" y="-755.63" as="targetPoint" />
          </mxGeometry>
        </mxCell>
        <mxCell id="hR7vcm5vldyTw9obsO4O-146" value="&lt;u&gt;codigo&lt;/u&gt;" style="ellipse;whiteSpace=wrap;html=1;" parent="1" vertex="1">
          <mxGeometry x="-490" y="-340" width="86" height="50" as="geometry" />
        </mxCell>
        <mxCell id="hR7vcm5vldyTw9obsO4O-148" value="" style="endArrow=none;html=1;rounded=0;" parent="1" source="hR7vcm5vldyTw9obsO4O-117" target="hR7vcm5vldyTw9obsO4O-125" edge="1">
          <mxGeometry width="50" height="50" relative="1" as="geometry">
            <mxPoint x="-470" y="-735.63" as="sourcePoint" />
            <mxPoint x="-420" y="-785.63" as="targetPoint" />
          </mxGeometry>
        </mxCell>
        <mxCell id="hR7vcm5vldyTw9obsO4O-149" value="" style="endArrow=none;html=1;rounded=0;entryX=0.75;entryY=0;entryDx=0;entryDy=0;" parent="1" source="hR7vcm5vldyTw9obsO4O-124" target="hR7vcm5vldyTw9obsO4O-117" edge="1">
          <mxGeometry width="50" height="50" relative="1" as="geometry">
            <mxPoint x="-470" y="-735.63" as="sourcePoint" />
            <mxPoint x="-420" y="-785.63" as="targetPoint" />
          </mxGeometry>
        </mxCell>
        <mxCell id="hR7vcm5vldyTw9obsO4O-150" value="" style="endArrow=none;html=1;rounded=0;entryX=0.25;entryY=0;entryDx=0;entryDy=0;" parent="1" source="hR7vcm5vldyTw9obsO4O-123" edge="1" target="hR7vcm5vldyTw9obsO4O-117">
          <mxGeometry width="50" height="50" relative="1" as="geometry">
            <mxPoint x="-470" y="-735.63" as="sourcePoint" />
            <mxPoint x="-320" y="-550" as="targetPoint" />
          </mxGeometry>
        </mxCell>
        <mxCell id="hR7vcm5vldyTw9obsO4O-151" value="" style="endArrow=none;html=1;rounded=0;entryX=0;entryY=0.5;entryDx=0;entryDy=0;exitX=1;exitY=0.5;exitDx=0;exitDy=0;" parent="1" source="hR7vcm5vldyTw9obsO4O-115" target="hR7vcm5vldyTw9obsO4O-146" edge="1">
          <mxGeometry width="50" height="50" relative="1" as="geometry">
            <mxPoint x="-780" y="56.02999999999997" as="sourcePoint" />
            <mxPoint x="-730" y="6.029999999999973" as="targetPoint" />
          </mxGeometry>
        </mxCell>
        <mxCell id="hR7vcm5vldyTw9obsO4O-156" value="" style="endArrow=none;html=1;rounded=0;entryX=0;entryY=1;entryDx=0;entryDy=0;" parent="1" source="hR7vcm5vldyTw9obsO4O-117" target="hR7vcm5vldyTw9obsO4O-122" edge="1">
          <mxGeometry width="50" height="50" relative="1" as="geometry">
            <mxPoint x="-470" y="-735.63" as="sourcePoint" />
            <mxPoint x="-129.56032387592586" y="-674.5957386759474" as="targetPoint" />
          </mxGeometry>
        </mxCell>
        <mxCell id="hR7vcm5vldyTw9obsO4O-157" value="mesa" style="rounded=1;whiteSpace=wrap;html=1;" parent="1" vertex="1">
          <mxGeometry x="-880" y="-638.97" width="120" height="60" as="geometry" />
        </mxCell>
        <mxCell id="hR7vcm5vldyTw9obsO4O-158" value="codigo" style="ellipse;whiteSpace=wrap;html=1;" parent="1" vertex="1">
          <mxGeometry x="-583" y="-790" width="90" height="40" as="geometry" />
        </mxCell>
        <mxCell id="hR7vcm5vldyTw9obsO4O-159" value="numero" style="ellipse;whiteSpace=wrap;html=1;" parent="1" vertex="1">
          <mxGeometry x="-980" y="-646.48" width="90" height="40" as="geometry" />
        </mxCell>
        <mxCell id="hR7vcm5vldyTw9obsO4O-160" value="capacidad" style="ellipse;whiteSpace=wrap;html=1;" parent="1" vertex="1">
          <mxGeometry x="-990" y="-584" width="80" height="55.63" as="geometry" />
        </mxCell>
        <mxCell id="hR7vcm5vldyTw9obsO4O-162" value="" style="endArrow=none;html=1;rounded=0;entryX=0.5;entryY=0;entryDx=0;entryDy=0;exitX=0.5;exitY=1;exitDx=0;exitDy=0;" parent="1" source="hR7vcm5vldyTw9obsO4O-158" target="RWH50KB4TgeM6HmIoFQ_-13" edge="1">
          <mxGeometry width="50" height="50" relative="1" as="geometry">
            <mxPoint x="-740" y="-780" as="sourcePoint" />
            <mxPoint x="-560" y="-745.54" as="targetPoint" />
          </mxGeometry>
        </mxCell>
        <mxCell id="hR7vcm5vldyTw9obsO4O-163" value="" style="endArrow=none;html=1;rounded=0;exitX=1;exitY=0;exitDx=0;exitDy=0;" parent="1" source="hR7vcm5vldyTw9obsO4O-159" target="hR7vcm5vldyTw9obsO4O-157" edge="1">
          <mxGeometry width="50" height="50" relative="1" as="geometry">
            <mxPoint x="-610" y="-695.54" as="sourcePoint" />
            <mxPoint x="-560" y="-745.54" as="targetPoint" />
          </mxGeometry>
        </mxCell>
        <mxCell id="hR7vcm5vldyTw9obsO4O-165" value="" style="endArrow=none;html=1;rounded=0;" parent="1" source="hR7vcm5vldyTw9obsO4O-160" target="hR7vcm5vldyTw9obsO4O-157" edge="1">
          <mxGeometry width="50" height="50" relative="1" as="geometry">
            <mxPoint x="-610" y="-695.54" as="sourcePoint" />
            <mxPoint x="-560" y="-745.54" as="targetPoint" />
          </mxGeometry>
        </mxCell>
        <mxCell id="hR7vcm5vldyTw9obsO4O-114" value="Nombre" style="ellipse;whiteSpace=wrap;html=1;" parent="1" vertex="1">
          <mxGeometry x="-243.34" y="-73.33" width="70" height="42.22" as="geometry" />
        </mxCell>
        <mxCell id="hR7vcm5vldyTw9obsO4O-116" value="Recepcionista" style="rounded=1;whiteSpace=wrap;html=1;" parent="1" vertex="1">
          <mxGeometry x="-364.00481481481484" y="-77.7766666666667" width="84.44444444444444" height="46.666666666666664" as="geometry" />
        </mxCell>
        <mxCell id="hR7vcm5vldyTw9obsO4O-120" value="&lt;u&gt;Id&lt;/u&gt;" style="ellipse;whiteSpace=wrap;html=1;" parent="1" vertex="1">
          <mxGeometry x="-243.34" y="-116.11" width="70" height="32.22" as="geometry" />
        </mxCell>
        <mxCell id="hR7vcm5vldyTw9obsO4O-144" value="" style="endArrow=none;html=1;rounded=0;" parent="1" source="hR7vcm5vldyTw9obsO4O-116" target="hR7vcm5vldyTw9obsO4O-114" edge="1">
          <mxGeometry width="50" height="50" relative="1" as="geometry">
            <mxPoint x="-200" y="-90" as="sourcePoint" />
            <mxPoint x="50" y="-80" as="targetPoint" />
          </mxGeometry>
        </mxCell>
        <mxCell id="hR7vcm5vldyTw9obsO4O-147" value="" style="endArrow=none;html=1;rounded=0;" parent="1" source="hR7vcm5vldyTw9obsO4O-116" target="hR7vcm5vldyTw9obsO4O-120" edge="1">
          <mxGeometry width="50" height="50" relative="1" as="geometry">
            <mxPoint y="-30" as="sourcePoint" />
            <mxPoint x="50" y="-80" as="targetPoint" />
            <Array as="points" />
          </mxGeometry>
        </mxCell>
        <mxCell id="hR7vcm5vldyTw9obsO4O-168" value="incluye&lt;br&gt;n...n" style="rhombus;whiteSpace=wrap;html=1;" parent="1" vertex="1">
          <mxGeometry x="-860" y="-355" width="80" height="80" as="geometry" />
        </mxCell>
        <mxCell id="hR7vcm5vldyTw9obsO4O-169" value="" style="endArrow=none;html=1;rounded=0;entryX=0.5;entryY=1;entryDx=0;entryDy=0;exitX=0;exitY=0.5;exitDx=0;exitDy=0;" parent="1" source="hR7vcm5vldyTw9obsO4O-115" target="hR7vcm5vldyTw9obsO4O-168" edge="1">
          <mxGeometry width="50" height="50" relative="1" as="geometry">
            <mxPoint x="-680" y="-310" as="sourcePoint" />
            <mxPoint x="-630" y="-360" as="targetPoint" />
          </mxGeometry>
        </mxCell>
        <mxCell id="RWH50KB4TgeM6HmIoFQ_-10" value="0..n" style="edgeLabel;html=1;align=center;verticalAlign=middle;resizable=0;points=[];" vertex="1" connectable="0" parent="hR7vcm5vldyTw9obsO4O-169">
          <mxGeometry x="-0.1635" y="4" relative="1" as="geometry">
            <mxPoint as="offset" />
          </mxGeometry>
        </mxCell>
        <mxCell id="hR7vcm5vldyTw9obsO4O-170" value="" style="endArrow=none;html=1;rounded=0;exitX=0.5;exitY=0;exitDx=0;exitDy=0;" parent="1" source="hR7vcm5vldyTw9obsO4O-168" target="hR7vcm5vldyTw9obsO4O-157" edge="1">
          <mxGeometry width="50" height="50" relative="1" as="geometry">
            <mxPoint x="-680" y="-310" as="sourcePoint" />
            <mxPoint x="-630" y="-360" as="targetPoint" />
          </mxGeometry>
        </mxCell>
        <mxCell id="RWH50KB4TgeM6HmIoFQ_-11" value="1..n" style="edgeLabel;html=1;align=center;verticalAlign=middle;resizable=0;points=[];" vertex="1" connectable="0" parent="hR7vcm5vldyTw9obsO4O-170">
          <mxGeometry x="0.2642" y="-1" relative="1" as="geometry">
            <mxPoint as="offset" />
          </mxGeometry>
        </mxCell>
        <mxCell id="hR7vcm5vldyTw9obsO4O-115" value="Reserva" style="rounded=1;whiteSpace=wrap;html=1;" parent="1" vertex="1">
          <mxGeometry x="-639" y="-298.75" width="96" height="48.75" as="geometry" />
        </mxCell>
        <mxCell id="hR7vcm5vldyTw9obsO4O-126" value="hora" style="ellipse;whiteSpace=wrap;html=1;" parent="1" vertex="1">
          <mxGeometry x="-670" y="-430" width="96" height="65" as="geometry" />
        </mxCell>
        <mxCell id="hR7vcm5vldyTw9obsO4O-127" value="fecha" style="ellipse;whiteSpace=wrap;html=1;" parent="1" vertex="1">
          <mxGeometry x="-559" y="-410" width="96" height="65" as="geometry" />
        </mxCell>
        <mxCell id="hR7vcm5vldyTw9obsO4O-128" value="Cantidad_personas" style="ellipse;whiteSpace=wrap;html=1;" parent="1" vertex="1">
          <mxGeometry x="-760" y="-379.995" width="96" height="65" as="geometry" />
        </mxCell>
        <mxCell id="hR7vcm5vldyTw9obsO4O-153" value="" style="endArrow=none;html=1;rounded=0;" parent="1" source="hR7vcm5vldyTw9obsO4O-115" target="hR7vcm5vldyTw9obsO4O-127" edge="1">
          <mxGeometry width="50" height="50" relative="1" as="geometry">
            <mxPoint x="-883" y="-60" as="sourcePoint" />
            <mxPoint x="-833" y="-110" as="targetPoint" />
          </mxGeometry>
        </mxCell>
        <mxCell id="hR7vcm5vldyTw9obsO4O-154" value="" style="endArrow=none;html=1;rounded=0;" parent="1" source="hR7vcm5vldyTw9obsO4O-115" target="hR7vcm5vldyTw9obsO4O-126" edge="1">
          <mxGeometry width="50" height="50" relative="1" as="geometry">
            <mxPoint x="-883" y="-60" as="sourcePoint" />
            <mxPoint x="-833" y="-110" as="targetPoint" />
          </mxGeometry>
        </mxCell>
        <mxCell id="hR7vcm5vldyTw9obsO4O-155" value="" style="endArrow=none;html=1;rounded=0;" parent="1" source="hR7vcm5vldyTw9obsO4O-115" target="hR7vcm5vldyTw9obsO4O-128" edge="1">
          <mxGeometry width="50" height="50" relative="1" as="geometry">
            <mxPoint x="-883" y="-60" as="sourcePoint" />
            <mxPoint x="-833" y="-110" as="targetPoint" />
          </mxGeometry>
        </mxCell>
        <mxCell id="hR7vcm5vldyTw9obsO4O-172" value="apellido1" style="ellipse;whiteSpace=wrap;html=1;" parent="1" vertex="1">
          <mxGeometry x="-378.44" y="-156.11" width="78" height="40" as="geometry" />
        </mxCell>
        <mxCell id="hR7vcm5vldyTw9obsO4O-174" value="" style="endArrow=none;html=1;rounded=0;entryX=0.5;entryY=1;entryDx=0;entryDy=0;" parent="1" source="hR7vcm5vldyTw9obsO4O-116" target="RWH50KB4TgeM6HmIoFQ_-2" edge="1">
          <mxGeometry width="50" height="50" relative="1" as="geometry">
            <mxPoint x="-680" y="-310" as="sourcePoint" />
            <mxPoint x="-271" y="-90" as="targetPoint" />
          </mxGeometry>
        </mxCell>
        <mxCell id="hR7vcm5vldyTw9obsO4O-175" value="" style="endArrow=none;html=1;rounded=0;entryX=0.5;entryY=1;entryDx=0;entryDy=0;exitX=0.5;exitY=0;exitDx=0;exitDy=0;" parent="1" source="hR7vcm5vldyTw9obsO4O-116" target="hR7vcm5vldyTw9obsO4O-172" edge="1">
          <mxGeometry width="50" height="50" relative="1" as="geometry">
            <mxPoint x="-680" y="-310" as="sourcePoint" />
            <mxPoint x="-350.22" y="-120" as="targetPoint" />
          </mxGeometry>
        </mxCell>
        <mxCell id="hR7vcm5vldyTw9obsO4O-176" value="rut" style="ellipse;whiteSpace=wrap;html=1;" parent="1" vertex="1">
          <mxGeometry x="-477.99999999999994" y="-127.78" width="99.56" height="30" as="geometry" />
        </mxCell>
        <mxCell id="hR7vcm5vldyTw9obsO4O-177" value="" style="endArrow=none;html=1;rounded=0;exitX=0.5;exitY=1;exitDx=0;exitDy=0;entryX=0;entryY=0.25;entryDx=0;entryDy=0;" parent="1" source="hR7vcm5vldyTw9obsO4O-176" target="hR7vcm5vldyTw9obsO4O-116" edge="1">
          <mxGeometry width="50" height="50" relative="1" as="geometry">
            <mxPoint x="-680" y="-310" as="sourcePoint" />
            <mxPoint x="-630" y="-360" as="targetPoint" />
          </mxGeometry>
        </mxCell>
        <mxCell id="RWH50KB4TgeM6HmIoFQ_-2" value="apellido2" style="ellipse;whiteSpace=wrap;html=1;" vertex="1" parent="1">
          <mxGeometry x="-300" y="-160" width="78" height="40" as="geometry" />
        </mxCell>
        <mxCell id="RWH50KB4TgeM6HmIoFQ_-4" value="fecha" style="ellipse;whiteSpace=wrap;html=1;" vertex="1" parent="1">
          <mxGeometry x="-709" y="-185" width="70" height="45" as="geometry" />
        </mxCell>
        <mxCell id="RWH50KB4TgeM6HmIoFQ_-5" value="accion" style="ellipse;whiteSpace=wrap;html=1;" vertex="1" parent="1">
          <mxGeometry x="-780" y="-140" width="80" height="38.33" as="geometry" />
        </mxCell>
        <mxCell id="RWH50KB4TgeM6HmIoFQ_-6" value="comentario" style="ellipse;whiteSpace=wrap;html=1;" vertex="1" parent="1">
          <mxGeometry x="-760" y="-77.78" width="80" height="37.78" as="geometry" />
        </mxCell>
        <mxCell id="RWH50KB4TgeM6HmIoFQ_-7" value="" style="endArrow=none;html=1;rounded=0;entryX=1;entryY=1;entryDx=0;entryDy=0;exitX=0;exitY=0;exitDx=0;exitDy=0;" edge="1" parent="1" source="hR7vcm5vldyTw9obsO4O-135" target="RWH50KB4TgeM6HmIoFQ_-4">
          <mxGeometry width="50" height="50" relative="1" as="geometry">
            <mxPoint x="-680" y="-80" as="sourcePoint" />
            <mxPoint x="-630" y="-130" as="targetPoint" />
          </mxGeometry>
        </mxCell>
        <mxCell id="RWH50KB4TgeM6HmIoFQ_-8" value="" style="endArrow=none;html=1;rounded=0;exitX=0;exitY=0.5;exitDx=0;exitDy=0;" edge="1" parent="1" source="hR7vcm5vldyTw9obsO4O-135">
          <mxGeometry width="50" height="50" relative="1" as="geometry">
            <mxPoint x="-654.5" y="-97.78" as="sourcePoint" />
            <mxPoint x="-700" y="-121" as="targetPoint" />
            <Array as="points" />
          </mxGeometry>
        </mxCell>
        <mxCell id="RWH50KB4TgeM6HmIoFQ_-9" value="" style="endArrow=none;html=1;rounded=0;entryX=1;entryY=0.5;entryDx=0;entryDy=0;exitX=0;exitY=1;exitDx=0;exitDy=0;" edge="1" parent="1" source="hR7vcm5vldyTw9obsO4O-135" target="RWH50KB4TgeM6HmIoFQ_-6">
          <mxGeometry width="50" height="50" relative="1" as="geometry">
            <mxPoint x="-631" y="-33.18000000000001" as="sourcePoint" />
            <mxPoint x="-668.9051778414894" y="-59.995736150930895" as="targetPoint" />
            <Array as="points" />
          </mxGeometry>
        </mxCell>
        <mxCell id="RWH50KB4TgeM6HmIoFQ_-13" value="ubicacion" style="rounded=1;whiteSpace=wrap;html=1;" vertex="1" parent="1">
          <mxGeometry x="-583" y="-730" width="120" height="60" as="geometry" />
        </mxCell>
        <mxCell id="RWH50KB4TgeM6HmIoFQ_-14" value="tiene&lt;br&gt;1..n" style="rhombus;whiteSpace=wrap;html=1;" vertex="1" parent="1">
          <mxGeometry x="-719" y="-686.48" width="80" height="80" as="geometry" />
        </mxCell>
        <mxCell id="RWH50KB4TgeM6HmIoFQ_-15" value="descripcion" style="ellipse;whiteSpace=wrap;html=1;" vertex="1" parent="1">
          <mxGeometry x="-478" y="-790" width="90" height="40" as="geometry" />
        </mxCell>
        <mxCell id="RWH50KB4TgeM6HmIoFQ_-16" value="" style="endArrow=none;html=1;rounded=0;entryX=0.855;entryY=0.01;entryDx=0;entryDy=0;exitX=0.5;exitY=1;exitDx=0;exitDy=0;entryPerimeter=0;" edge="1" parent="1" source="RWH50KB4TgeM6HmIoFQ_-15" target="RWH50KB4TgeM6HmIoFQ_-13">
          <mxGeometry width="50" height="50" relative="1" as="geometry">
            <mxPoint x="-664" y="-805" as="sourcePoint" />
            <mxPoint x="-608.04" y="-780.54" as="targetPoint" />
            <Array as="points" />
          </mxGeometry>
        </mxCell>
        <mxCell id="RWH50KB4TgeM6HmIoFQ_-17" value="1..1" style="endArrow=none;html=1;rounded=0;exitX=0;exitY=0.5;exitDx=0;exitDy=0;" edge="1" parent="1" source="RWH50KB4TgeM6HmIoFQ_-13" target="RWH50KB4TgeM6HmIoFQ_-14">
          <mxGeometry width="50" height="50" relative="1" as="geometry">
            <mxPoint x="-600" y="-666.21" as="sourcePoint" />
            <mxPoint x="-583.04" y="-626.75" as="targetPoint" />
            <Array as="points" />
          </mxGeometry>
        </mxCell>
        <mxCell id="RWH50KB4TgeM6HmIoFQ_-18" value="0..n" style="endArrow=none;html=1;rounded=0;exitX=0;exitY=1;exitDx=0;exitDy=0;entryX=1;entryY=0.5;entryDx=0;entryDy=0;" edge="1" parent="1" source="RWH50KB4TgeM6HmIoFQ_-14" target="hR7vcm5vldyTw9obsO4O-157">
          <mxGeometry width="50" height="50" relative="1" as="geometry">
            <mxPoint x="-695.15" y="-632.3199999999999" as="sourcePoint" />
            <mxPoint x="-744.8573954983921" y="-578.9673954983923" as="targetPoint" />
            <Array as="points" />
          </mxGeometry>
        </mxCell>
        <mxCell id="RWH50KB4TgeM6HmIoFQ_-19" value="apellido2" style="ellipse;whiteSpace=wrap;html=1;" vertex="1" parent="1">
          <mxGeometry x="-500" y="-633.975" width="80" height="55" as="geometry" />
        </mxCell>
        <mxCell id="RWH50KB4TgeM6HmIoFQ_-20" value="" style="endArrow=none;html=1;rounded=0;entryX=0;entryY=0.25;entryDx=0;entryDy=0;" edge="1" parent="1" target="hR7vcm5vldyTw9obsO4O-117">
          <mxGeometry width="50" height="50" relative="1" as="geometry">
            <mxPoint x="-429.99803257358974" y="-590.0038612623409" as="sourcePoint" />
            <mxPoint x="-369.03666666666675" y="-503.51500000000016" as="targetPoint" />
          </mxGeometry>
        </mxCell>
        <mxCell id="RWH50KB4TgeM6HmIoFQ_-21" value="estado" style="rounded=1;whiteSpace=wrap;html=1;" vertex="1" parent="1">
          <mxGeometry x="-1040" y="-208.75" width="96" height="48.75" as="geometry" />
        </mxCell>
        <mxCell id="RWH50KB4TgeM6HmIoFQ_-22" value="tiene&lt;br&gt;n...n" style="rhombus;whiteSpace=wrap;html=1;" vertex="1" parent="1">
          <mxGeometry x="-870" y="-236.11" width="80" height="80" as="geometry" />
        </mxCell>
        <mxCell id="RWH50KB4TgeM6HmIoFQ_-23" value="1..n" style="endArrow=none;html=1;rounded=0;entryX=1;entryY=0.5;entryDx=0;entryDy=0;exitX=0;exitY=1;exitDx=0;exitDy=0;" edge="1" parent="1" source="hR7vcm5vldyTw9obsO4O-115">
          <mxGeometry width="50" height="50" relative="1" as="geometry">
            <mxPoint x="-731" y="-229.86" as="sourcePoint" />
            <mxPoint x="-799.9999999999948" y="-208.7499999999999" as="targetPoint" />
            <Array as="points" />
          </mxGeometry>
        </mxCell>
        <mxCell id="RWH50KB4TgeM6HmIoFQ_-24" value="" style="endArrow=none;html=1;rounded=0;entryX=1;entryY=0.5;entryDx=0;entryDy=0;exitX=0;exitY=0.5;exitDx=0;exitDy=0;" edge="1" parent="1" source="RWH50KB4TgeM6HmIoFQ_-22" target="RWH50KB4TgeM6HmIoFQ_-21">
          <mxGeometry width="50" height="50" relative="1" as="geometry">
            <mxPoint x="-870" y="-160" as="sourcePoint" />
            <mxPoint x="-938.9999999999948" y="-138.88999999999987" as="targetPoint" />
            <Array as="points" />
          </mxGeometry>
        </mxCell>
        <mxCell id="RWH50KB4TgeM6HmIoFQ_-29" value="1..n" style="edgeLabel;html=1;align=center;verticalAlign=middle;resizable=0;points=[];" vertex="1" connectable="0" parent="RWH50KB4TgeM6HmIoFQ_-24">
          <mxGeometry x="-0.5228" y="-1" relative="1" as="geometry">
            <mxPoint x="1" as="offset" />
          </mxGeometry>
        </mxCell>
        <mxCell id="RWH50KB4TgeM6HmIoFQ_-25" value="tipo" style="ellipse;whiteSpace=wrap;html=1;" vertex="1" parent="1">
          <mxGeometry x="-1110" y="-275" width="80" height="38.33" as="geometry" />
        </mxCell>
        <mxCell id="RWH50KB4TgeM6HmIoFQ_-26" value="accion" style="ellipse;whiteSpace=wrap;html=1;" vertex="1" parent="1">
          <mxGeometry x="-1160" y="-178.32999999999998" width="80" height="38.33" as="geometry" />
        </mxCell>
        <mxCell id="RWH50KB4TgeM6HmIoFQ_-27" value="" style="endArrow=none;html=1;rounded=0;entryX=0.5;entryY=1;entryDx=0;entryDy=0;" edge="1" parent="1" target="RWH50KB4TgeM6HmIoFQ_-25">
          <mxGeometry width="50" height="50" relative="1" as="geometry">
            <mxPoint x="-1010" y="-210" as="sourcePoint" />
            <mxPoint x="-1029" y="-238.265" as="targetPoint" />
            <Array as="points" />
          </mxGeometry>
        </mxCell>
        <mxCell id="RWH50KB4TgeM6HmIoFQ_-28" value="" style="endArrow=none;html=1;rounded=0;entryX=1;entryY=0;entryDx=0;entryDy=0;exitX=0;exitY=0.5;exitDx=0;exitDy=0;" edge="1" parent="1" target="RWH50KB4TgeM6HmIoFQ_-26">
          <mxGeometry width="50" height="50" relative="1" as="geometry">
            <mxPoint x="-1040" y="-168.37000000000012" as="sourcePoint" />
            <mxPoint x="-1114" y="-156.635" as="targetPoint" />
            <Array as="points" />
          </mxGeometry>
        </mxCell>
      </root>
    </mxGraphModel>
  </diagram>
</mxfile>
